<svg width="16" height="15" viewBox="0 0 16 15" fill="none" xmlns="http://www.w3.org/2000/svg">
<path d="M0.72931 4.96703L3.8392 4.96703L3.8392 14.967H0.72931L0.72931 4.96703ZM2.27876 0C3.27876 0 4.08096 0.802198 4.08096 1.8022C4.08096 2.8022 3.27876 3.6044 2.27876 3.6044C1.27876 3.6044 0.476563 2.79121 0.476563 1.8022C0.476563 0.813187 1.27876 0 2.27876 0Z" fill="#7E7E7E"/>
<path d="M5.78461 4.9671L8.76263 4.9671V6.32974H8.80659C9.22417 5.53853 10.2352 4.71436 11.7516 4.71436C14.8945 4.71436 15.4769 6.78029 15.4769 9.4726L15.4769 14.9561H12.367L12.367 10.099C12.367 8.93414 12.345 7.45062 10.7516 7.45062C9.15824 7.45062 8.88351 8.71436 8.88351 10.022L8.88351 14.9671H5.77362L5.77362 4.9671H5.78461Z" fill="#7E7E7E"/>
</svg>
